<?xml version="1.0" encoding="iso-8859-1"?>
<!-- Uploaded to: SVG Repo, www.svgrepo.com, Generator: SVG Repo Mixer Tools -->
<svg height="800px" width="800px" version="1.1" id="Layer_1" xmlns="http://www.w3.org/2000/svg" xmlns:xlink="http://www.w3.org/1999/xlink" 
	 viewBox="0 0 512 512" xml:space="preserve">
<g>
	<path style="fill:#5A2479;" d="M77.537,118.396l73,80.231c3.468,3.812,1.169,9.95-3.951,10.545L21.935,223.633
		c-5.098,0.591-8.742-4.811-6.285-9.316l51.651-94.694C69.384,115.806,74.609,115.179,77.537,118.396z"/>
	<path style="fill:#5A2479;" d="M226.746,2.575L156.822,97.47c-3.192,4.332,0.134,10.417,5.503,10.068l163.64-10.598
		c5.59-0.362,7.987-7.273,3.822-11.02L236.072,1.622C233.294-0.876,228.965-0.435,226.746,2.575z"/>
</g>
<polygon style="fill:#956EC4;" points="65.095,512 22.52,223.561 136.151,210.386 150.73,271.153 188.606,269.506 183.43,106.097 
	303.159,98.286 305.793,151.807 313.765,264.565 354.935,271.153 369.958,210.916 483.548,224.03 447.157,512 "/>
<path style="fill:#FF4F18;" d="M318.579,512H197.538V404.957c0-33.424,27.096-60.521,60.521-60.521l0,0
	c33.424,0,60.521,27.096,60.521,60.521V512z"/>
<g>
	<path style="fill:#FFD92D;" d="M143.363,373.753l-60.551,9.789L72.85,321.93c-2.703-16.72,8.66-32.467,25.38-35.171l0,0
		c16.72-2.703,32.467,8.66,35.171,25.38L143.363,373.753z"/>
	<path style="fill:#FFD92D;" d="M428.876,378.217l-60.796-8.125l8.268-61.863c2.244-16.789,17.673-28.579,34.461-26.336l0,0
		c16.789,2.244,28.579,17.673,26.336,34.461L428.876,378.217z"/>
	<circle style="fill:#FFD92D;" cx="245.909" cy="182.988" r="24.268"/>
	<circle style="fill:#FFD92D;" cx="245.909" cy="279.365" r="24.268"/>
</g>
<path style="fill:#5A2479;" d="M434.463,119.632l-73,80.231c-3.468,3.812-1.169,9.95,3.951,10.545l124.651,14.462
	c5.098,0.591,8.742-4.811,6.285-9.316l-51.651-94.694C442.616,117.041,437.391,116.413,434.463,119.632z"/>
</svg>